<svg xmlns="http://www.w3.org/2000/svg" viewBox="0 0 512 512">
    <path fill="#2563eb" d="M288 256C288 273.7 273.7 288 256 288C238.3 288 224 273.7 224 256C224 238.3 238.3 224 256 224C273.7 224 288 238.3 288 256zM512 256C512 397.4 397.4 512 256 512C114.6 512 0 397.4 0 256C0 114.6 114.6 0 256 0C397.4 0 512 114.6 512 256zM256 64C238.3 64 224 78.33 224 96C224 113.7 238.3 128 256 128C273.7 128 288 113.7 288 96C288 78.33 273.7 64 256 64zM256 384C273.7 384 288 369.7 288 352C288 334.3 273.7 320 256 320C238.3 320 224 334.3 224 352C224 369.7 238.3 384 256 384zM96 256C96 273.7 110.3 288 128 288C145.7 288 160 273.7 160 256C160 238.3 145.7 224 128 224C110.3 224 96 238.3 96 256zM384 288C401.7 288 416 273.7 416 256C416 238.3 401.7 224 384 224C366.3 224 352 238.3 352 256C352 273.7 366.3 288 384 288z"/>
</svg>
